# xmcd
#
# Track frame offsets:
#	150
#	11464
#	25007
#	39781
#	51590
#	61903
#	73601
#	85378
#	95801
#	106896
#	119971
#	132919
#	142665
#
# Disc length: 2185 seconds
#
# Revision: 0
# Processed by: cddbd v1.5.2PL0 Copyright (c) Steve Scherf et al.
# Submitted via: dBpowerAMP V4.0
#
DISCID=b008870d
DTITLE=2018 - 538.180-7 - 1975 - LA TERRE PROMISE
DYEAR=1975
DGENRE=Country
TTITLE0=01. La terre promise
TTITLE1=02. L'histoire de Bobby Mc Gee
TTITLE2=03. Je t'aime à l'infini
TTITLE3=04. Hey lovely lady
TTITLE4=05. C'est bon
TTITLE5=06. Les larmes de Belinda
TTITLE6=07. Quand je reviendrai
TTITLE7=08. La première fois
TTITLE8=09. Tout ce que tu veux
TTITLE9=10. Reste avec moi cette nuit
TTITLE10=11. Promesses
TTITLE11=12. La ruée vers l'or
TTITLE12=13. Une fille sans importance
EXTD=
EXTT0=
EXTT1=
EXTT2=
EXTT3=
EXTT4=
EXTT5=
EXTT6=
EXTT7=
EXTT8=
EXTT9=
EXTT10=
EXTT11=
EXTT12=
PLAYORDER=
